<svg width="40" height="40" viewBox="0 0 40 40" fill="none" xmlns="http://www.w3.org/2000/svg">
<path d="M30.5843 39.3633C30.2013 39.3622 29.8195 39.3202 29.4454 39.238C22.3235 37.7648 15.7623 34.3105 10.517 29.2727C5.3837 24.2239 1.82345 17.7957 0.267047 10.7658C0.0835276 9.88966 0.12857 8.98104 0.397842 8.12735C0.667113 7.27366 1.15155 6.50363 1.80455 5.89135L6.3601 1.50663C6.59279 1.28658 6.86925 1.11807 7.17147 1.0121C7.47368 0.906133 7.79484 0.865081 8.11399 0.891629C8.44491 0.926152 8.76425 1.03275 9.04955 1.20393C9.33486 1.37511 9.57919 1.60672 9.76538 1.88246L15.4598 10.2989C15.6734 10.6254 15.7765 11.0119 15.7539 11.4014C15.7313 11.791 15.5844 12.163 15.3345 12.4627L12.4759 15.8794C13.6144 18.3991 15.2267 20.6765 17.2251 22.5875C19.2105 24.5678 21.5572 26.149 24.1382 27.2455L27.6801 24.4325C27.9776 24.1974 28.3396 24.0584 28.718 24.0339C29.0964 24.0095 29.4732 24.1009 29.7984 24.2958L38.3971 29.8536C38.6921 30.0298 38.9435 30.2704 39.1324 30.5576C39.3212 30.8447 39.4427 31.1708 39.4876 31.5116C39.5325 31.8523 39.4997 32.1988 39.3917 32.525C39.2838 32.8513 39.1033 33.1489 38.864 33.3955L34.4223 37.7916C33.9178 38.2937 33.3189 38.691 32.6603 38.9607C32.0016 39.2305 31.296 39.3673 30.5843 39.3633ZM8.05977 2.81404L3.29233 7.10474C2.92499 7.44704 2.48861 8.05573 2.33884 8.53498C2.18908 9.01422 2.23176 9.9514 2.33884 10.442C3.78605 17.0386 7.06957 22.8582 11.8737 27.6047C16.8099 32.3443 23.2883 35.7552 29.99 37.1396C30.4973 37.2457 30.9233 37.2867 31.4202 37.1396C31.9172 36.9925 32.9594 36.5512 33.3272 36.1861L37.6179 31.8954L29.0365 26.1745L24.7458 29.5117C24.6002 29.627 24.6678 29.6034 24.4851 29.6372C24.3025 29.6709 23.9695 29.5673 23.7923 29.5117C20.6339 28.348 18.0263 26.6262 15.6648 24.2275C13.2223 21.9465 11.6514 19.2789 10.4435 16.1629C10.3924 15.9742 10.3956 15.8756 10.4435 15.6861C10.4914 15.4967 10.9202 15.2094 10.9202 15.2094L14.2574 11.3954L8.05977 2.81404Z" fill="black"/>
</svg>
