<svg width="37" height="33" viewBox="0 0 37 33" fill="none" xmlns="http://www.w3.org/2000/svg">
<path d="M35.2967 0.977098C35.0126 0.731574 34.6667 0.568521 34.2965 0.505621C33.9263 0.442722 33.546 0.482377 33.1967 0.620286L1.47599 13.0821C1.06139 13.245 0.710685 13.5379 0.476357 13.9167C0.242028 14.2956 0.136669 14.7402 0.176042 15.1839C0.215415 15.6277 0.397402 16.0467 0.694779 16.3784C0.992156 16.7101 1.38894 16.9366 1.82576 17.024L10.4357 18.7462V29.3736C10.4314 29.7825 10.5506 30.1831 10.7778 30.5231C11.005 30.8631 11.3295 31.1265 11.7089 31.279C11.963 31.3855 12.2357 31.4406 12.5112 31.4414C12.7805 31.4406 13.047 31.3863 13.2951 31.2817C13.5432 31.1771 13.7681 31.0242 13.9567 30.832L18.8716 25.917L26.1236 32.2987C26.4972 32.6306 26.9795 32.8142 27.4793 32.8147C27.6966 32.8145 27.9125 32.7803 28.1192 32.7133C28.4601 32.6052 28.7666 32.4096 29.0083 32.146C29.2499 31.8824 29.4183 31.5601 29.4964 31.2111L35.9613 3.00075C36.0457 2.63491 36.0284 2.25294 35.9112 1.89624C35.7941 1.53953 35.5816 1.22167 35.2967 0.977098ZM1.54543 15.0623C1.52839 14.9138 1.5619 14.7639 1.64055 14.6368C1.71921 14.5097 1.83841 14.4128 1.9789 14.3619L31.0559 2.93854L10.9637 17.4496L2.09543 15.6758C1.94809 15.6504 1.81364 15.5759 1.71383 15.4646C1.61403 15.3533 1.5547 15.2115 1.54543 15.0623ZM12.9842 29.8598C12.8881 29.956 12.7656 30.0214 12.6322 30.0479C12.4989 30.0744 12.3606 30.0608 12.235 30.0088C12.1094 29.9567 12.002 29.8686 11.9265 29.7555C11.851 29.6425 11.8107 29.5096 11.8107 29.3736V19.7032L17.8373 25.0068L12.9842 29.8598ZM34.6211 2.69361L28.156 30.904C28.1294 31.0201 28.0731 31.1272 27.9926 31.215C27.9121 31.3028 27.8102 31.3682 27.6969 31.4047C27.5836 31.4413 27.4627 31.4478 27.3461 31.4236C27.2295 31.3994 27.1212 31.3453 27.0317 31.2666L12.224 18.2354L34.5099 2.14018C34.5685 2.21825 34.6089 2.30847 34.6282 2.4042C34.6474 2.49994 34.645 2.59877 34.6211 2.69344V2.69361Z" fill="black"/>
</svg>
