<svg width="35" height="35" viewBox="0 0 35 35" fill="none" xmlns="http://www.w3.org/2000/svg">
<path d="M17.5 0.703125C14.5593 0.703897 11.6703 1.47648 9.12181 2.94365C6.57329 4.41082 4.45449 6.5212 2.97717 9.06385C1.49986 11.6065 0.715767 14.4924 0.703277 17.433C0.690786 20.3736 1.45033 23.2661 2.90599 25.8212L1.39344 31.1149C1.29472 31.4605 1.29022 31.8262 1.3804 32.1742C1.47059 32.5221 1.65217 32.8396 1.90634 33.0938C2.16051 33.3479 2.47802 33.5295 2.82597 33.6196C3.17392 33.7098 3.53964 33.7053 3.88525 33.6065L9.17912 32.0941C11.4141 33.3684 13.9119 34.1122 16.4799 34.2683C19.0479 34.4244 21.6174 33.9885 23.9903 32.9943C26.3632 32.0001 28.476 30.4742 30.1657 28.5342C31.8555 26.5942 33.0771 24.292 33.7363 21.8052C34.3955 19.3184 34.4746 16.7134 33.9677 14.1911C33.4607 11.6688 32.3812 9.29667 30.8123 7.25766C29.2435 5.21864 27.2272 3.56723 24.9191 2.4308C22.611 1.29436 20.0727 0.703274 17.5 0.703125ZM17.5 32.9531C14.7246 32.955 12.0001 32.2084 9.61349 30.7919C9.5348 30.745 9.44736 30.7148 9.35653 30.703C9.26571 30.6912 9.17344 30.6981 9.0854 30.7233L3.51606 32.3145C3.40086 32.3474 3.27896 32.3489 3.163 32.3188C3.04704 32.2887 2.94122 32.2282 2.85652 32.1435C2.77182 32.0588 2.71131 31.9529 2.68126 31.837C2.65121 31.721 2.65272 31.5991 2.68562 31.4839L4.27662 25.9147C4.30178 25.8267 4.30868 25.7344 4.29689 25.6436C4.28511 25.5528 4.25489 25.4653 4.20809 25.3866C2.46757 22.4542 1.74575 19.0285 2.15508 15.6432C2.56442 12.2578 4.08192 9.10283 6.47119 6.66978C8.86046 4.23673 11.9873 2.6622 15.3647 2.19147C18.7421 1.72075 22.1804 2.38025 25.1439 4.06725C28.1074 5.75424 30.4297 8.37401 31.7492 11.5184C33.0686 14.6629 33.311 18.1554 32.4387 21.452C31.5663 24.7485 29.6282 27.664 26.9262 29.7443C24.2242 31.8245 20.91 32.9527 17.5 32.9531ZM25.9844 20.6146L22.5478 18.6509C22.2368 18.4735 21.8843 18.382 21.5263 18.3858C21.1684 18.3896 20.8179 18.4886 20.5108 18.6726L18.1917 20.064C16.7878 19.3527 15.6473 18.2122 14.9361 16.8083L16.3275 14.4892C16.5115 14.1821 16.6105 13.8316 16.6143 13.4736C16.6181 13.1156 16.5265 12.7631 16.349 12.4522L14.3855 9.01556C14.2251 8.73578 13.9938 8.50324 13.7149 8.34139C13.436 8.17955 13.1193 8.09413 12.7968 8.09375C11.3749 8.09409 10.011 8.65773 9.00364 9.66131C7.99628 10.6649 7.42752 12.0267 7.42184 13.4486C7.41921 15.3031 7.78221 17.14 8.49009 18.8541C9.19796 20.5683 10.2368 22.126 11.5472 23.4384C12.8576 24.7507 14.4139 25.7918 16.127 26.5021C17.8402 27.2124 19.6765 27.5781 21.531 27.5781H21.5512C22.9732 27.5725 24.335 27.0037 25.3386 25.9964C26.3422 24.989 26.9059 23.6251 26.9062 22.2031C26.9059 21.8807 26.8204 21.564 26.6586 21.2851C26.4967 21.0062 26.2642 20.7749 25.9844 20.6146ZM21.5494 26.2344H21.5312C19.8533 26.2344 18.1918 25.9036 16.6419 25.2609C15.0919 24.6183 13.6838 23.6764 12.4982 22.4891C11.3126 21.3018 10.3726 19.8924 9.73215 18.3415C9.09167 16.7906 8.76322 15.1287 8.76558 13.4508C8.77021 12.3847 9.19698 11.3639 9.9525 10.6117C10.708 9.85956 11.7307 9.43736 12.7968 9.4375C12.8825 9.4376 12.9666 9.46028 13.0406 9.50325C13.1147 9.54621 13.1762 9.60795 13.2188 9.68223L15.1823 13.119C15.2415 13.2227 15.272 13.3401 15.2708 13.4595C15.2695 13.5788 15.2366 13.6956 15.1753 13.798L13.598 16.4263C13.5423 16.5193 13.5098 16.6243 13.5034 16.7325C13.4971 16.8407 13.517 16.9488 13.5614 17.0477C14.4384 18.9994 16.0007 20.5617 17.9525 21.4385C18.0513 21.483 18.1594 21.5029 18.2676 21.4966C18.3758 21.4902 18.4809 21.4577 18.5738 21.4019L21.202 19.8247C21.3044 19.7634 21.4212 19.7304 21.5406 19.7291C21.6599 19.7278 21.7774 19.7583 21.8811 19.8175L25.3177 21.7814C25.392 21.8239 25.4538 21.8853 25.4967 21.9594C25.5397 22.0334 25.5624 22.1175 25.5625 22.2031C25.5626 23.2692 25.1404 24.2919 24.3883 25.0474C23.6362 25.8029 22.6154 26.2297 21.5494 26.2344Z" fill="black"/>
</svg>
